<?xml version="1.0" standalone="no"?>
<!DOCTYPE svg PUBLIC "-//W3C//DTD SVG 20010904//EN"
 "http://www.w3.org/TR/2001/REC-SVG-20010904/DTD/svg10.dtd">
<svg version="1.0" xmlns="http://www.w3.org/2000/svg"
 width="1170.000000pt" height="1147.000000pt" viewBox="0 0 1170.000000 1147.000000"
 preserveAspectRatio="xMidYMid meet">

<g transform="translate(0.000000,1147.000000) scale(0.100000,-0.100000)"
fill="#000000" stroke="none">
<path d="M422 7447 c-100 -216 -182 -396 -182 -400 0 -4 340 -7 755 -7 l755 0
0 -1845 0 -1845 970 0 970 0 0 1845 0 1845 771 0 c730 0 771 1 765 18 -4 9
-86 189 -183 400 l-177 382 -2131 0 -2131 0 -182 -393z m1888 -1852 l0 -1965
-140 0 -140 0 0 1965 0 1965 140 0 140 0 0 -1965z m550 0 l0 -1965 -135 0
-135 0 0 1965 0 1965 135 0 135 0 0 -1965z m550 -5 l0 -1970 -135 0 -135 0 0
1970 0 1970 135 0 135 0 0 -1970z"/>
<path d="M6433 7828 c3 -7 48 -121 100 -253 52 -132 129 -328 172 -435 42
-107 223 -566 402 -1020 179 -454 381 -967 449 -1140 69 -173 214 -542 324
-820 109 -278 226 -572 258 -655 l59 -150 561 -3 560 -2 40 102 c58 147 216
548 502 1273 137 347 287 729 335 850 48 121 121 306 162 410 267 676 344 872
448 1135 64 162 147 374 185 470 38 96 76 192 84 213 l16 37 -429 0 -429 0
-140 -352 c-78 -194 -265 -666 -417 -1048 -152 -382 -278 -696 -280 -698 -1
-2 -112 271 -245 605 -133 334 -321 807 -417 1051 l-176 442 -1065 0 c-847 0
-1063 -3 -1059 -12z m747 -350 c18 -46 87 -222 155 -393 67 -170 155 -393 195
-495 40 -102 132 -336 205 -520 315 -798 508 -1288 805 -2040 83 -211 154
-388 156 -392 3 -4 -66 -8 -153 -8 l-158 0 -107 273 c-59 149 -155 394 -214
542 -58 149 -221 560 -360 915 -140 355 -304 769 -364 920 -305 771 -500 1269
-500 1274 0 3 69 6 154 6 l155 0 31 -82z m704 -235 c269 -681 382 -968 486
-1233 60 -151 174 -441 255 -645 80 -203 224 -568 319 -810 96 -242 197 -498
225 -570 l51 -130 -43 -110 -43 -110 -69 0 -69 0 -61 155 c-34 85 -162 409
-285 720 -122 311 -269 682 -325 825 -57 143 -225 568 -373 945 -149 377 -322
817 -386 978 -64 161 -116 295 -116 298 0 2 69 4 154 4 l154 0 126 -317z m633
-53 c79 -201 197 -500 263 -665 65 -165 228 -579 363 -920 135 -341 275 -696
312 -790 37 -93 68 -174 68 -180 0 -17 -146 -385 -153 -385 -3 0 -57 129 -120
288 -62 158 -169 429 -237 602 -219 555 -300 759 -408 1035 -59 149 -151 383
-205 520 -221 558 -313 792 -326 828 l-13 38 156 -3 155 -3 145 -365z"/>
<path d="M7155 4837 c-27 -33 -80 -98 -117 -143 l-68 -82 45 -37 45 -37 143
134 c78 73 141 135 140 136 -4 9 -123 92 -130 91 -5 0 -30 -28 -58 -62z"/>
<path d="M4233 4399 c-166 -21 -303 -144 -303 -271 l0 -28 79 0 78 0 7 41 c8
52 56 103 111 118 52 14 158 14 207 -1 76 -22 118 -98 118 -210 l0 -58 -124 0
c-283 0 -424 -53 -504 -189 -24 -41 -27 -56 -27 -141 0 -84 3 -101 27 -146 15
-28 41 -63 59 -78 153 -129 426 -108 548 42 30 36 30 37 31 11 0 -14 7 -46 16
-72 l16 -47 79 0 c43 0 79 3 79 8 0 4 -8 30 -17 57 -13 41 -17 115 -23 395 -7
382 -9 394 -72 465 -51 58 -124 91 -228 104 -47 6 -87 10 -90 10 -3 -1 -33 -5
-67 -10z m297 -621 c0 -109 -19 -158 -83 -214 -65 -56 -120 -77 -208 -77 -61
-1 -83 4 -120 24 -77 42 -109 141 -74 226 42 100 125 131 353 132 l132 1 0
-92z"/>
<path d="M5330 4401 c-61 -13 -109 -42 -160 -98 -49 -53 -50 -54 -50 -26 0 15
-3 45 -6 66 l-7 37 -68 0 -69 0 0 -505 0 -505 80 0 80 0 0 363 0 364 29 40
c60 83 132 117 235 111 l66 -3 0 78 0 77 -27 0 c-16 0 -37 2 -48 4 -11 2 -36
1 -55 -3z"/>
<path d="M7015 4400 c-181 -28 -321 -160 -370 -350 -25 -96 -17 -320 15 -409
50 -140 174 -254 309 -285 283 -65 523 83 581 359 18 84 16 257 -4 334 -50
193 -191 324 -381 352 -67 10 -80 10 -150 -1z m211 -158 c81 -42 142 -134 164
-250 15 -76 8 -227 -14 -299 -37 -117 -124 -198 -230 -212 -207 -28 -340 105
-353 354 -12 223 73 387 222 426 51 14 168 3 211 -19z"/>
<path d="M6004 4390 c-64 -13 -141 -56 -190 -105 l-44 -44 0 69 0 70 -75 0
-75 0 0 -505 0 -505 80 0 80 0 0 357 0 356 25 43 c97 165 363 180 434 24 14
-30 16 -91 19 -407 l3 -373 80 0 80 0 -4 393 c-4 423 -5 431 -60 514 -60 91
-220 142 -353 113z"/>
</g>
</svg>
